<svg width="621" height="252" viewBox="0 0 621 252" fill="none" xmlns="http://www.w3.org/2000/svg">
<path fill-rule="evenodd" clip-rule="evenodd" d="M608.24 83.9255C617.04 95.734 614.619 112.319 609.777 145.49L604.641 180.673C599.799 213.843 597.378 230.429 585.569 239.229C573.76 248.03 557.175 245.609 524.004 240.766L506.413 238.198C473.243 233.356 456.657 230.935 447.857 219.126C439.056 207.317 441.477 190.731 446.319 157.561L451.455 122.379C456.297 89.2079 458.718 72.6226 470.527 63.8226C482.336 55.0218 498.922 57.443 532.092 62.2851L549.683 64.853C582.854 69.6952 599.44 72.1163 608.24 83.9255ZM574.963 122.442C575.495 118.799 572.973 115.414 569.33 114.882L498.964 104.61C495.321 104.079 491.936 106.601 491.405 110.244C490.873 113.887 493.395 117.272 497.038 117.804L567.404 128.076C571.047 128.607 574.432 126.085 574.963 122.442ZM569.828 157.625C570.359 153.981 567.837 150.597 564.194 150.065L493.828 139.793C490.185 139.261 486.801 141.784 486.269 145.427C485.737 149.07 488.259 152.455 491.902 152.987L562.268 163.258C565.911 163.79 569.296 161.268 569.828 157.625ZM559.058 185.248C562.701 185.779 565.224 189.164 564.692 192.807C564.16 196.45 560.775 198.973 557.132 198.441L513.154 192.021C509.51 191.489 506.988 188.105 507.52 184.461C508.052 180.818 511.436 178.296 515.08 178.828L559.058 185.248Z" fill="#BFDBFE"/>
<path fill-rule="evenodd" clip-rule="evenodd" d="M12.7607 83.9255C3.9599 95.734 6.38098 112.319 11.2232 145.49L16.359 180.673C21.2011 213.843 23.6223 230.429 35.4315 239.229C47.24 248.03 63.8254 245.609 96.9961 240.766L114.587 238.198C147.757 233.356 164.344 230.935 173.144 219.126C181.944 207.317 179.523 190.731 174.681 157.561L169.545 122.379C164.703 89.2079 162.282 72.6226 150.473 63.8226C138.664 55.0218 122.078 57.443 88.9081 62.2851L71.3168 64.853C38.146 69.6952 21.5607 72.1163 12.7607 83.9255ZM46.0368 122.442C45.505 118.799 48.0274 115.414 51.6706 114.882L122.036 104.61C125.679 104.079 129.064 106.601 129.596 110.244C130.127 113.887 127.605 117.272 123.962 117.804L53.5965 128.076C49.9534 128.607 46.5686 126.085 46.0368 122.442ZM51.1727 157.625C50.6409 153.981 53.1633 150.597 56.8065 150.065L127.172 139.793C130.815 139.261 134.2 141.784 134.732 145.427C135.263 149.07 132.741 152.455 129.098 152.987L58.7324 163.258C55.0892 163.79 51.7045 161.268 51.1727 157.625ZM61.9423 185.248C58.2992 185.779 55.7767 189.164 56.3085 192.807C56.8404 196.45 60.2251 198.973 63.8683 198.441L107.847 192.021C111.49 191.489 114.012 188.105 113.48 184.461C112.949 180.818 109.564 178.296 105.921 178.828L61.9423 185.248Z" fill="#BFDBFE"/>
<path fill-rule="evenodd" clip-rule="evenodd" d="M522.213 44.1025C532.787 56.8578 531.031 75.6322 527.519 113.181L523.793 153.007C520.281 190.555 518.525 209.33 505.769 219.903C493.013 230.477 474.239 228.721 436.69 225.208L416.777 223.346C379.229 219.833 360.454 218.077 349.881 205.321C339.307 192.566 341.064 173.79 344.576 136.243L348.301 96.4165C351.814 58.8678 353.57 40.0935 366.326 29.5204C379.081 18.9465 397.857 20.7027 435.404 24.215L455.317 26.0777C492.866 29.5901 511.64 31.3463 522.213 44.1025ZM487.066 89.3095C487.452 85.1855 484.421 81.5294 480.297 81.1436L400.645 73.6928C396.521 73.307 392.865 76.3377 392.479 80.4617C392.093 84.5857 395.124 88.2418 399.248 88.6276L478.9 96.0784C483.024 96.4642 486.681 93.4335 487.066 89.3095ZM483.341 129.136C483.727 125.012 480.696 121.356 476.572 120.97L396.92 113.519C392.796 113.133 389.14 116.164 388.754 120.288C388.368 124.412 391.399 128.068 395.523 128.454L475.175 135.905C479.299 136.29 482.955 133.26 483.341 129.136ZM472.847 160.796C476.971 161.182 480.001 164.838 479.615 168.962C479.23 173.086 475.574 176.116 471.45 175.731L421.667 171.074C417.543 170.688 414.512 167.032 414.898 162.908C415.284 158.784 418.94 155.753 423.064 156.139L472.847 160.796Z" fill="#93C5FD"/>
<path fill-rule="evenodd" clip-rule="evenodd" d="M98.7865 44.1025C88.2125 56.8578 89.9687 75.6322 93.4811 113.181L97.2065 153.007C100.719 190.555 102.475 209.33 115.231 219.903C127.987 230.477 146.761 228.721 184.31 225.208L204.223 223.346C241.771 219.833 260.546 218.077 271.119 205.321C281.693 192.566 279.936 173.79 276.424 136.243L272.699 96.4165C269.186 58.8678 267.43 40.0935 254.674 29.5204C241.919 18.9465 223.143 20.7027 185.596 24.215L165.683 26.0777C128.134 29.5901 109.36 31.3463 98.7865 44.1025ZM133.934 89.3095C133.548 85.1855 136.579 81.5294 140.703 81.1436L220.355 73.6928C224.479 73.307 228.135 76.3377 228.521 80.4617C228.907 84.5857 225.876 88.2418 221.752 88.6276L142.1 96.0784C137.976 96.4642 134.319 93.4335 133.934 89.3095ZM137.659 129.136C137.273 125.012 140.304 121.356 144.428 120.97L224.08 113.519C228.204 113.133 231.86 116.164 232.246 120.288C232.632 124.412 229.601 128.068 225.477 128.454L145.825 135.905C141.701 136.29 138.045 133.26 137.659 129.136ZM148.153 160.796C144.029 161.182 140.999 164.838 141.385 168.962C141.77 173.086 145.426 176.116 149.55 175.731L199.333 171.074C203.457 170.688 206.488 167.032 206.102 162.908C205.716 158.784 202.06 155.753 197.936 156.139L148.153 160.796Z" fill="#93C5FD"/>
<path fill-rule="evenodd" clip-rule="evenodd" d="M218.892 13.0851C205.874 26.102 205.874 47.0534 205.874 88.9563V133.401C205.874 175.303 205.874 196.255 218.892 209.272C231.909 222.29 252.86 222.29 294.763 222.29H316.985C358.887 222.29 379.839 222.29 392.856 209.272C405.874 196.255 405.874 175.303 405.874 133.401V88.9563C405.874 47.0534 405.874 26.102 392.856 13.0851C379.839 0.0673828 358.887 0.0673828 316.985 0.0673828H294.763C252.86 0.0673828 231.909 0.0673828 218.892 13.0851ZM253.096 66.7341C253.096 62.1318 256.827 58.4007 261.43 58.4007H350.318C354.921 58.4007 358.652 62.1318 358.652 66.7341C358.652 71.3363 354.921 75.0674 350.318 75.0674H261.43C256.827 75.0674 253.096 71.3363 253.096 66.7341ZM253.096 111.178C253.096 106.576 256.827 102.845 261.43 102.845H350.318C354.921 102.845 358.652 106.576 358.652 111.178C358.652 115.781 354.921 119.512 350.318 119.512H261.43C256.827 119.512 253.096 115.781 253.096 111.178ZM261.43 147.29C256.827 147.29 253.096 151.021 253.096 155.623C253.096 160.225 256.827 163.956 261.43 163.956H316.985C321.587 163.956 325.318 160.225 325.318 155.623C325.318 151.021 321.587 147.29 316.985 147.29H261.43Z" fill="url(#paint0_linear_34_1096)"/>
<defs>
<linearGradient id="paint0_linear_34_1096" x1="305.874" y1="0.0673828" x2="305.874" y2="222.29" gradientUnits="userSpaceOnUse">
<stop stop-color="#3795FF"/>
<stop offset="1" stop-color="#88C0FF"/>
</linearGradient>
</defs>
</svg>
