<svg width="279" height="326" viewBox="0 0 279 326" fill="none" xmlns="http://www.w3.org/2000/svg">
<rect x="0.246094" y="74.2483" width="139" height="27" rx="13.5" fill="#DBEAFE"/>
<path d="M18.2461 83.2484H14.7461C14.4809 83.2484 14.2265 83.3538 14.039 83.5413C13.8515 83.7288 13.7461 83.9832 13.7461 84.2484V91.2484C13.7461 91.5136 13.8515 91.768 14.039 91.9555C14.2265 92.143 14.4809 92.2484 14.7461 92.2484H21.7461C22.0113 92.2484 22.2657 92.143 22.4532 91.9555C22.6407 91.768 22.7461 91.5136 22.7461 91.2484V87.7484M21.4336 83.0609C21.6325 82.862 21.9023 82.7502 22.1836 82.7502C22.4649 82.7502 22.7347 82.862 22.9336 83.0609C23.1325 83.2598 23.2443 83.5296 23.2443 83.8109C23.2443 84.0922 23.1325 84.362 22.9336 84.5609L18.4271 89.0679C18.3084 89.1865 18.1617 89.2734 18.0006 89.3204L16.5641 89.7404C16.5211 89.753 16.4755 89.7537 16.432 89.7426C16.3886 89.7315 16.349 89.7089 16.3173 89.6772C16.2856 89.6455 16.263 89.6059 16.2519 89.5624C16.2408 89.519 16.2415 89.4734 16.2541 89.4304L16.6741 87.9939C16.7214 87.8329 16.8084 87.6864 16.9271 87.5679L21.4336 83.0609Z" stroke="#172554" stroke-linecap="round" stroke-linejoin="round"/>
<path d="M37.5415 84.521V85.8847H32.6097V84.521H37.5415ZM33.962 93.2483V83.5097C33.962 82.9642 34.0813 82.5115 34.32 82.1517C34.5586 81.7881 34.8749 81.5172 35.2688 81.3392C35.6628 81.1574 36.0908 81.0665 36.5529 81.0665C36.8938 81.0665 37.1855 81.0949 37.4279 81.1517C37.6703 81.2047 37.8503 81.254 37.9677 81.2994L37.57 82.6744C37.4904 82.6517 37.3881 82.6252 37.2631 82.5949C37.1381 82.5608 36.9866 82.5437 36.8086 82.5437C36.3957 82.5437 36.1003 82.646 35.9222 82.8506C35.748 83.0551 35.6609 83.3506 35.6609 83.7369V93.2483H33.962ZM39.2944 93.2483V84.521H40.9933V93.2483H39.2944ZM40.1523 83.1744C39.8569 83.1744 39.6031 83.0759 39.391 82.879C39.1826 82.6782 39.0785 82.4396 39.0785 82.1631C39.0785 81.8828 39.1826 81.6441 39.391 81.4472C39.6031 81.2464 39.8569 81.146 40.1523 81.146C40.4478 81.146 40.6997 81.2464 40.908 81.4472C41.1201 81.6441 41.2262 81.8828 41.2262 82.1631C41.2262 82.4396 41.1201 82.6782 40.908 82.879C40.6997 83.0759 40.4478 83.1744 40.1523 83.1744ZM44.9776 81.6119V93.2483H43.2788V81.6119H44.9776ZM51.0245 93.4244C50.1647 93.4244 49.4241 93.2407 48.8029 92.8733C48.1855 92.5021 47.7082 91.9812 47.3711 91.3108C47.0378 90.6365 46.8711 89.8468 46.8711 88.9415C46.8711 88.0475 47.0378 87.2597 47.3711 86.5778C47.7082 85.896 48.1779 85.3638 48.7802 84.9812C49.3862 84.5987 50.0946 84.4074 50.9052 84.4074C51.3976 84.4074 51.8749 84.4888 52.337 84.6517C52.7991 84.8146 53.2139 85.0703 53.5813 85.4187C53.9487 85.7672 54.2385 86.2199 54.4506 86.7767C54.6628 87.3297 54.7688 88.0021 54.7688 88.7937V89.396H47.8313V88.1233H53.104C53.104 87.6763 53.0131 87.2805 52.8313 86.9358C52.6495 86.5873 52.3938 86.3127 52.0643 86.1119C51.7385 85.9112 51.3559 85.8108 50.9165 85.8108C50.4393 85.8108 50.0226 85.9282 49.6665 86.1631C49.3143 86.3941 49.0415 86.6972 48.8484 87.0722C48.659 87.4434 48.5643 87.8468 48.5643 88.2824V89.2767C48.5643 89.86 48.6665 90.3562 48.8711 90.7653C49.0794 91.1744 49.3692 91.4869 49.7404 91.7028C50.1116 91.915 50.5453 92.021 51.0415 92.021C51.3635 92.021 51.6571 91.9756 51.9222 91.8847C52.1874 91.79 52.4165 91.6498 52.6097 91.4642C52.8029 91.2786 52.9506 91.0494 53.0529 90.7767L54.6609 91.0665C54.5321 91.54 54.301 91.9547 53.9677 92.3108C53.6381 92.6631 53.2234 92.9377 52.7234 93.1347C52.2272 93.3278 51.6609 93.4244 51.0245 93.4244ZM60.8881 93.2483V84.521H62.5188V85.9415H62.6268C62.8086 85.4604 63.1059 85.0854 63.5188 84.8165C63.9317 84.5437 64.426 84.4074 65.0018 84.4074C65.5851 84.4074 66.0737 84.5437 66.4677 84.8165C66.8654 85.0892 67.159 85.4642 67.3484 85.9415H67.4393C67.6476 85.4756 67.979 85.1044 68.4336 84.8278C68.8881 84.5475 69.4298 84.4074 70.0586 84.4074C70.8503 84.4074 71.4961 84.6555 71.9961 85.1517C72.4999 85.6479 72.7518 86.396 72.7518 87.396V93.2483H71.0529V87.5551C71.0529 86.9642 70.8919 86.5362 70.57 86.271C70.248 86.0059 69.8635 85.8733 69.4165 85.8733C68.8635 85.8733 68.4336 86.0437 68.1268 86.3847C67.82 86.7218 67.6665 87.1555 67.6665 87.6858V93.2483H65.9734V87.4472C65.9734 86.9737 65.8256 86.593 65.5302 86.3051C65.2347 86.0172 64.8503 85.8733 64.3768 85.8733C64.0548 85.8733 63.7575 85.9585 63.4847 86.129C63.2158 86.2956 62.998 86.5286 62.8313 86.8278C62.6684 87.1271 62.587 87.4737 62.587 87.8676V93.2483H60.8881ZM78.7049 93.4244C77.8867 93.4244 77.1727 93.2369 76.5629 92.8619C75.953 92.4869 75.4795 91.9623 75.1424 91.2881C74.8053 90.6138 74.6367 89.8259 74.6367 88.9244C74.6367 88.0191 74.8053 87.2275 75.1424 86.5494C75.4795 85.8714 75.953 85.3449 76.5629 84.9699C77.1727 84.5949 77.8867 84.4074 78.7049 84.4074C79.5231 84.4074 80.2371 84.5949 80.8469 84.9699C81.4568 85.3449 81.9303 85.8714 82.2674 86.5494C82.6045 87.2275 82.7731 88.0191 82.7731 88.9244C82.7731 89.8259 82.6045 90.6138 82.2674 91.2881C81.9303 91.9623 81.4568 92.4869 80.8469 92.8619C80.2371 93.2369 79.5231 93.4244 78.7049 93.4244ZM78.7106 91.9983C79.2409 91.9983 79.6803 91.8581 80.0288 91.5778C80.3772 91.2975 80.6348 90.9244 80.8015 90.4585C80.9719 89.9926 81.0572 89.4794 81.0572 88.9187C81.0572 88.3619 80.9719 87.8506 80.8015 87.3847C80.6348 86.915 80.3772 86.5381 80.0288 86.254C79.6803 85.9699 79.2409 85.8278 78.7106 85.8278C78.1765 85.8278 77.7333 85.9699 77.381 86.254C77.0326 86.5381 76.7731 86.915 76.6026 87.3847C76.436 87.8506 76.3526 88.3619 76.3526 88.9187C76.3526 89.4794 76.436 89.9926 76.6026 90.4585C76.7731 90.9244 77.0326 91.2975 77.381 91.5778C77.7333 91.8581 78.1765 91.9983 78.7106 91.9983ZM87.9364 93.4187C87.2319 93.4187 86.6031 93.2388 86.0501 92.879C85.5008 92.5153 85.069 91.9983 84.7546 91.3278C84.444 90.6536 84.2887 89.8449 84.2887 88.9017C84.2887 87.9585 84.4459 87.1517 84.7603 86.4812C85.0785 85.8108 85.5141 85.2975 86.0671 84.9415C86.6201 84.5854 87.247 84.4074 87.9478 84.4074C88.4895 84.4074 88.9251 84.4983 89.2546 84.6801C89.588 84.8581 89.8455 85.0665 90.0273 85.3051C90.213 85.5437 90.3569 85.754 90.4592 85.9358H90.5614V81.6119H92.2603V93.2483H90.6012V91.8903H90.4592C90.3569 92.0759 90.2092 92.2881 90.016 92.5267C89.8266 92.7653 89.5652 92.9737 89.2319 93.1517C88.8986 93.3297 88.4667 93.4187 87.9364 93.4187ZM88.3114 91.9699C88.8001 91.9699 89.2129 91.8411 89.5501 91.5835C89.891 91.3222 90.1486 90.9604 90.3228 90.4983C90.5008 90.0362 90.5898 89.4983 90.5898 88.8847C90.5898 88.2786 90.5027 87.7483 90.3285 87.2937C90.1542 86.8392 89.8986 86.485 89.5614 86.2312C89.2243 85.9775 88.8076 85.8506 88.3114 85.8506C87.8001 85.8506 87.3739 85.9831 87.033 86.2483C86.6921 86.5134 86.4345 86.8752 86.2603 87.3335C86.0898 87.7919 86.0046 88.3089 86.0046 88.8847C86.0046 89.468 86.0917 89.9926 86.266 90.4585C86.4402 90.9244 86.6978 91.2937 87.0387 91.5665C87.3834 91.8354 87.8076 91.9699 88.3114 91.9699ZM94.685 93.2483V84.521H96.3839V93.2483H94.685ZM95.543 83.1744C95.2475 83.1744 94.9937 83.0759 94.7816 82.879C94.5733 82.6782 94.4691 82.4396 94.4691 82.1631C94.4691 81.8828 94.5733 81.6441 94.7816 81.4472C94.9937 81.2464 95.2475 81.146 95.543 81.146C95.8384 81.146 96.0903 81.2464 96.2987 81.4472C96.5108 81.6441 96.6168 81.8828 96.6168 82.1631C96.6168 82.4396 96.5108 82.6782 96.2987 82.879C96.0903 83.0759 95.8384 83.1744 95.543 83.1744ZM102.823 84.521V85.8847H97.891V84.521H102.823ZM99.2433 93.2483V83.5097C99.2433 82.9642 99.3626 82.5115 99.6012 82.1517C99.8398 81.7881 100.156 81.5172 100.55 81.3392C100.944 81.1574 101.372 81.0665 101.834 81.0665C102.175 81.0665 102.467 81.0949 102.709 81.1517C102.952 81.2047 103.132 81.254 103.249 81.2994L102.851 82.6744C102.772 82.6517 102.669 82.6252 102.544 82.5949C102.419 82.5608 102.268 82.5437 102.09 82.5437C101.677 82.5437 101.382 82.646 101.203 82.8506C101.029 83.0551 100.942 83.3506 100.942 83.7369V93.2483H99.2433ZM104.576 93.2483V84.521H106.275V93.2483H104.576ZM105.434 83.1744C105.138 83.1744 104.884 83.0759 104.672 82.879C104.464 82.6782 104.36 82.4396 104.36 82.1631C104.36 81.8828 104.464 81.6441 104.672 81.4472C104.884 81.2464 105.138 81.146 105.434 81.146C105.729 81.146 105.981 81.2464 106.189 81.4472C106.401 81.6441 106.507 81.8828 106.507 82.1631C106.507 82.4396 106.401 82.6782 106.189 82.879C105.981 83.0759 105.729 83.1744 105.434 83.1744ZM112.321 93.4244C111.462 93.4244 110.721 93.2407 110.1 92.8733C109.482 92.5021 109.005 91.9812 108.668 91.3108C108.335 90.6365 108.168 89.8468 108.168 88.9415C108.168 88.0475 108.335 87.2597 108.668 86.5778C109.005 85.896 109.475 85.3638 110.077 84.9812C110.683 84.5987 111.391 84.4074 112.202 84.4074C112.694 84.4074 113.172 84.4888 113.634 84.6517C114.096 84.8146 114.511 85.0703 114.878 85.4187C115.246 85.7672 115.535 86.2199 115.748 86.7767C115.96 87.3297 116.066 88.0021 116.066 88.7937V89.396H109.128V88.1233H114.401C114.401 87.6763 114.31 87.2805 114.128 86.9358C113.946 86.5873 113.691 86.3127 113.361 86.1119C113.035 85.9112 112.653 85.8108 112.213 85.8108C111.736 85.8108 111.319 85.9282 110.963 86.1631C110.611 86.3941 110.338 86.6972 110.145 87.0722C109.956 87.4434 109.861 87.8468 109.861 88.2824V89.2767C109.861 89.86 109.963 90.3562 110.168 90.7653C110.376 91.1744 110.666 91.4869 111.037 91.7028C111.408 91.915 111.842 92.021 112.338 92.021C112.66 92.021 112.954 91.9756 113.219 91.8847C113.484 91.79 113.713 91.6498 113.907 91.4642C114.1 91.2786 114.248 91.0494 114.35 90.7767L115.958 91.0665C115.829 91.54 115.598 91.9547 115.265 92.3108C114.935 92.6631 114.52 92.9377 114.02 93.1347C113.524 93.3278 112.958 93.4244 112.321 93.4244ZM121.218 93.4187C120.513 93.4187 119.884 93.2388 119.331 92.879C118.782 92.5153 118.35 91.9983 118.036 91.3278C117.725 90.6536 117.57 89.8449 117.57 88.9017C117.57 87.9585 117.727 87.1517 118.042 86.4812C118.36 85.8108 118.795 85.2975 119.348 84.9415C119.901 84.5854 120.528 84.4074 121.229 84.4074C121.771 84.4074 122.206 84.4983 122.536 84.6801C122.869 84.8581 123.127 85.0665 123.309 85.3051C123.494 85.5437 123.638 85.754 123.74 85.9358H123.843V81.6119H125.542V93.2483H123.882V91.8903H123.74C123.638 92.0759 123.49 92.2881 123.297 92.5267C123.108 92.7653 122.846 92.9737 122.513 93.1517C122.18 93.3297 121.748 93.4187 121.218 93.4187ZM121.593 91.9699C122.081 91.9699 122.494 91.8411 122.831 91.5835C123.172 91.3222 123.43 90.9604 123.604 90.4983C123.782 90.0362 123.871 89.4983 123.871 88.8847C123.871 88.2786 123.784 87.7483 123.61 87.2937C123.435 86.8392 123.18 86.485 122.843 86.2312C122.506 85.9775 122.089 85.8506 121.593 85.8506C121.081 85.8506 120.655 85.9831 120.314 86.2483C119.973 86.5134 119.716 86.8752 119.542 87.3335C119.371 87.7919 119.286 88.3089 119.286 88.8847C119.286 89.468 119.373 89.9926 119.547 90.4585C119.721 90.9244 119.979 91.2937 120.32 91.5665C120.665 91.8354 121.089 91.9699 121.593 91.9699Z" fill="#172554"/>
<rect x="159.974" y="75.0203" width="18" height="18" transform="rotate(45 159.974 75.0203)" fill="#DBEAFE"/>
<rect x="159.974" y="80.677" width="10" height="10" transform="rotate(45 159.974 80.677)" fill="#BFDBFE"/>
<path d="M181.401 91.7483V90.9528L183.862 88.4031C184.125 88.1261 184.342 87.8835 184.512 87.6751C184.685 87.4644 184.814 87.2644 184.899 87.075C184.985 86.8856 185.027 86.6844 185.027 86.4713C185.027 86.2298 184.97 86.0215 184.857 85.8463C184.743 85.6687 184.588 85.5326 184.392 85.4379C184.195 85.3409 183.974 85.2923 183.727 85.2923C183.467 85.2923 183.24 85.3456 183.046 85.4521C182.852 85.5587 182.702 85.709 182.598 85.9031C182.494 86.0972 182.442 86.3245 182.442 86.5849H181.394C181.394 86.1422 181.496 85.7552 181.7 85.4237C181.903 85.0923 182.183 84.8354 182.538 84.6531C182.893 84.4685 183.297 84.3761 183.749 84.3761C184.206 84.3761 184.608 84.4673 184.956 84.6496C185.307 84.8295 185.58 85.0757 185.776 85.3882C185.973 85.6983 186.071 86.0487 186.071 86.4393C186.071 86.7092 186.02 86.9732 185.919 87.2312C185.819 87.4893 185.645 87.7769 185.397 88.0942C185.148 88.409 184.802 88.7914 184.36 89.2412L182.914 90.754V90.8072H186.188V91.7483H181.401ZM190.066 91.869C189.505 91.8667 189.026 91.7187 188.628 91.4251C188.23 91.1316 187.926 90.7043 187.715 90.1432C187.505 89.5821 187.399 88.9062 187.399 88.1155C187.399 87.3271 187.505 86.6536 187.715 86.0949C187.928 85.5362 188.234 85.11 188.632 84.8165C189.032 84.5229 189.51 84.3761 190.066 84.3761C190.623 84.3761 191.1 84.5241 191.497 84.82C191.895 85.1136 192.199 85.5397 192.41 86.0984C192.623 86.6548 192.73 87.3271 192.73 88.1155C192.73 88.9086 192.624 89.5856 192.414 90.1467C192.203 90.7054 191.899 91.1328 191.501 91.4287C191.103 91.7222 190.625 91.869 190.066 91.869ZM190.066 90.9209C190.559 90.9209 190.943 90.6806 191.22 90.2C191.5 89.7194 191.639 89.0246 191.639 88.1155C191.639 87.5118 191.575 87.0016 191.448 86.5849C191.322 86.1659 191.141 85.8487 190.904 85.6332C190.67 85.4154 190.391 85.3065 190.066 85.3065C189.576 85.3065 189.191 85.548 188.912 86.031C188.633 86.5139 188.492 87.2088 188.49 88.1155C188.49 88.7215 188.552 89.2341 188.678 89.6531C188.806 90.0698 188.987 90.3858 189.221 90.6013C189.455 90.8143 189.737 90.9209 190.066 90.9209ZM193.989 91.7483V90.9528L196.45 88.4031C196.713 88.1261 196.93 87.8835 197.1 87.6751C197.273 87.4644 197.402 87.2644 197.487 87.075C197.572 86.8856 197.615 86.6844 197.615 86.4713C197.615 86.2298 197.558 86.0215 197.445 85.8463C197.331 85.6687 197.176 85.5326 196.979 85.4379C196.783 85.3409 196.562 85.2923 196.315 85.2923C196.055 85.2923 195.828 85.3456 195.634 85.4521C195.439 85.5587 195.29 85.709 195.186 85.9031C195.082 86.0972 195.03 86.3245 195.03 86.5849H193.982C193.982 86.1422 194.084 85.7552 194.288 85.4237C194.491 85.0923 194.771 84.8354 195.126 84.6531C195.481 84.4685 195.884 84.3761 196.337 84.3761C196.794 84.3761 197.196 84.4673 197.544 84.6496C197.894 84.8295 198.168 85.0757 198.364 85.3882C198.561 85.6983 198.659 86.0487 198.659 86.4393C198.659 86.7092 198.608 86.9732 198.506 87.2312C198.407 87.4893 198.233 87.7769 197.984 88.0942C197.736 88.409 197.39 88.7914 196.947 89.2412L195.502 90.754V90.8072H198.776V91.7483H193.989ZM199.813 90.3278V89.4401L202.956 84.4756H203.656V85.7824H203.212L200.964 89.3406V89.3974H205.271V90.3278H199.813ZM203.261 91.7483V90.058L203.268 89.6531V84.4756H204.309V91.7483H203.261ZM209.737 87.6503V88.5736H206.512V87.6503H209.737ZM213.897 84.4756V91.7483H212.796V85.5764H212.754L211.014 86.7128V85.6616L212.828 84.4756H213.897ZM218.396 91.869C217.835 91.8667 217.356 91.7187 216.958 91.4251C216.56 91.1316 216.256 90.7043 216.045 90.1432C215.835 89.5821 215.729 88.9062 215.729 88.1155C215.729 87.3271 215.835 86.6536 216.045 86.0949C216.259 85.5362 216.564 85.11 216.962 84.8165C217.362 84.5229 217.84 84.3761 218.396 84.3761C218.953 84.3761 219.43 84.5241 219.827 84.82C220.225 85.1136 220.529 85.5397 220.74 86.0984C220.953 86.6548 221.06 87.3271 221.06 88.1155C221.06 88.9086 220.954 89.5856 220.744 90.1467C220.533 90.7054 220.229 91.1328 219.831 91.4287C219.433 91.7222 218.955 91.869 218.396 91.869ZM218.396 90.9209C218.889 90.9209 219.273 90.6806 219.55 90.2C219.83 89.7194 219.969 89.0246 219.969 88.1155C219.969 87.5118 219.906 87.0016 219.778 86.5849C219.652 86.1659 219.471 85.8487 219.234 85.6332C219 85.4154 218.721 85.3065 218.396 85.3065C217.906 85.3065 217.522 85.548 217.242 86.031C216.963 86.5139 216.822 87.2088 216.82 88.1155C216.82 88.7215 216.882 89.2341 217.008 89.6531C217.136 90.0698 217.317 90.3858 217.551 90.6013C217.786 90.8143 218.067 90.9209 218.396 90.9209ZM225.547 87.6503V88.5736H222.323V87.6503H225.547ZM226.655 91.7483V90.9528L229.116 88.4031C229.379 88.1261 229.596 87.8835 229.766 87.6751C229.939 87.4644 230.068 87.2644 230.153 87.075C230.238 86.8856 230.281 86.6844 230.281 86.4713C230.281 86.2298 230.224 86.0215 230.111 85.8463C229.997 85.6687 229.842 85.5326 229.645 85.4379C229.449 85.3409 229.228 85.2923 228.981 85.2923C228.721 85.2923 228.494 85.3456 228.3 85.4521C228.105 85.5587 227.956 85.709 227.852 85.9031C227.748 86.0972 227.696 86.3245 227.696 86.5849H226.648C226.648 86.1422 226.75 85.7552 226.954 85.4237C227.157 85.0923 227.437 84.8354 227.792 84.6531C228.147 84.4685 228.551 84.3761 229.003 84.3761C229.46 84.3761 229.862 84.4673 230.21 84.6496C230.56 84.8295 230.834 85.0757 231.03 85.3882C231.227 85.6983 231.325 86.0487 231.325 86.4393C231.325 86.7092 231.274 86.9732 231.172 87.2312C231.073 87.4893 230.899 87.7769 230.65 88.0942C230.402 88.409 230.056 88.7914 229.613 89.2412L228.168 90.754V90.8072H231.442V91.7483H226.655ZM235.327 91.8477C235.003 91.843 234.683 91.7838 234.368 91.6702C234.056 91.5565 233.772 91.3671 233.516 91.102C233.26 90.8368 233.056 90.4805 232.902 90.0331C232.75 89.5856 232.675 89.0269 232.675 88.357C232.675 87.7225 232.737 87.159 232.863 86.6666C232.991 86.1742 233.174 85.7587 233.413 85.4202C233.652 85.0793 233.941 84.82 234.28 84.6425C234.618 84.4649 234.998 84.3761 235.42 84.3761C235.853 84.3761 236.238 84.4614 236.574 84.6318C236.91 84.8023 237.182 85.0378 237.39 85.3385C237.601 85.6392 237.735 85.9812 237.792 86.3648H236.709C236.635 86.0617 236.49 85.8143 236.272 85.6226C236.054 85.4308 235.77 85.3349 235.42 85.3349C234.887 85.3349 234.471 85.5669 234.173 86.031C233.877 86.495 233.728 87.1401 233.726 87.9663H233.779C233.904 87.7604 234.058 87.5852 234.241 87.4408C234.425 87.294 234.631 87.1815 234.859 87.1034C235.088 87.0229 235.33 86.9827 235.583 86.9827C236.004 86.9827 236.385 87.0856 236.726 87.2916C237.07 87.4952 237.343 87.7769 237.547 88.1368C237.75 88.4966 237.852 88.9086 237.852 89.3726C237.852 89.8366 237.747 90.2568 237.536 90.6332C237.328 91.0097 237.034 91.308 236.655 91.5281C236.277 91.7459 235.834 91.8525 235.327 91.8477ZM235.324 90.9244C235.603 90.9244 235.853 90.8558 236.073 90.7185C236.293 90.5812 236.467 90.3965 236.595 90.1645C236.723 89.9325 236.787 89.6732 236.787 89.3868C236.787 89.1074 236.724 88.8529 236.599 88.6233C236.475 88.3937 236.305 88.2114 236.087 88.0764C235.872 87.9415 235.626 87.874 235.349 87.874C235.138 87.874 234.943 87.9142 234.763 87.9947C234.585 88.0752 234.429 88.1865 234.294 88.3285C234.159 88.4706 234.052 88.6339 233.974 88.8186C233.899 89.0009 233.861 89.1938 233.861 89.3974C233.861 89.6697 233.923 89.9218 234.049 90.1538C234.177 90.3858 234.351 90.5729 234.571 90.7149C234.793 90.8546 235.044 90.9244 235.324 90.9244Z" fill="black"/>
<rect x="18.2461" y="140.248" width="121" height="27" rx="13.5" fill="#F0FDF4"/>
<path d="M32.7461 153.748H39.7461M36.2461 150.248V157.248" stroke="#052E16" stroke-width="2" stroke-linecap="round" stroke-linejoin="round"/>
<path d="M55.5415 150.521V151.885H50.6097V150.521H55.5415ZM51.962 159.248V149.51C51.962 148.964 52.0813 148.512 52.32 148.152C52.5586 147.788 52.8749 147.517 53.2688 147.339C53.6628 147.157 54.0908 147.066 54.5529 147.066C54.8938 147.066 55.1855 147.095 55.4279 147.152C55.6703 147.205 55.8503 147.254 55.9677 147.299L55.57 148.674C55.4904 148.652 55.3881 148.625 55.2631 148.595C55.1381 148.561 54.9866 148.544 54.8086 148.544C54.3957 148.544 54.1003 148.646 53.9222 148.851C53.748 149.055 53.6609 149.351 53.6609 149.737V159.248H51.962ZM57.2944 159.248V150.521H58.9933V159.248H57.2944ZM58.1523 149.174C57.8569 149.174 57.6031 149.076 57.391 148.879C57.1826 148.678 57.0785 148.44 57.0785 148.163C57.0785 147.883 57.1826 147.644 57.391 147.447C57.6031 147.246 57.8569 147.146 58.1523 147.146C58.4478 147.146 58.6997 147.246 58.908 147.447C59.1201 147.644 59.2262 147.883 59.2262 148.163C59.2262 148.44 59.1201 148.678 58.908 148.879C58.6997 149.076 58.4478 149.174 58.1523 149.174ZM62.9776 147.612V159.248H61.2788V147.612H62.9776ZM69.0245 159.424C68.1647 159.424 67.4241 159.241 66.8029 158.873C66.1855 158.502 65.7082 157.981 65.3711 157.311C65.0378 156.637 64.8711 155.847 64.8711 154.941C64.8711 154.048 65.0378 153.26 65.3711 152.578C65.7082 151.896 66.1779 151.364 66.7802 150.981C67.3862 150.599 68.0946 150.407 68.9052 150.407C69.3976 150.407 69.8749 150.489 70.337 150.652C70.7991 150.815 71.2139 151.07 71.5813 151.419C71.9487 151.767 72.2385 152.22 72.4506 152.777C72.6628 153.33 72.7688 154.002 72.7688 154.794V155.396H65.8313V154.123H71.104C71.104 153.676 71.0131 153.28 70.8313 152.936C70.6495 152.587 70.3938 152.313 70.0643 152.112C69.7385 151.911 69.3559 151.811 68.9165 151.811C68.4393 151.811 68.0226 151.928 67.6665 152.163C67.3143 152.394 67.0415 152.697 66.8484 153.072C66.659 153.443 66.5643 153.847 66.5643 154.282V155.277C66.5643 155.86 66.6665 156.356 66.8711 156.765C67.0794 157.174 67.3692 157.487 67.7404 157.703C68.1116 157.915 68.5453 158.021 69.0415 158.021C69.3635 158.021 69.6571 157.976 69.9222 157.885C70.1874 157.79 70.4165 157.65 70.6097 157.464C70.8029 157.279 70.9506 157.049 71.0529 156.777L72.6609 157.066C72.5321 157.54 72.301 157.955 71.9677 158.311C71.6381 158.663 71.2234 158.938 70.7234 159.135C70.2272 159.328 69.6609 159.424 69.0245 159.424ZM81.4279 159.441C80.8749 159.441 80.3749 159.339 79.9279 159.135C79.4809 158.926 79.1268 158.625 78.8654 158.231C78.6078 157.837 78.479 157.354 78.479 156.782C78.479 156.29 78.5737 155.885 78.7631 155.566C78.9525 155.248 79.2082 154.996 79.5302 154.811C79.8522 154.625 80.212 154.485 80.6097 154.39C81.0075 154.296 81.4128 154.224 81.8256 154.174C82.3484 154.114 82.7726 154.065 83.0984 154.027C83.4241 153.985 83.6609 153.919 83.8086 153.828C83.9563 153.737 84.0302 153.589 84.0302 153.385V153.345C84.0302 152.849 83.89 152.464 83.6097 152.191C83.3332 151.919 82.9203 151.782 82.3711 151.782C81.7991 151.782 81.3484 151.909 81.0188 152.163C80.6931 152.413 80.4677 152.691 80.3427 152.998L78.7461 152.635C78.9355 152.104 79.212 151.676 79.5756 151.351C79.9431 151.021 80.3654 150.782 80.8427 150.635C81.32 150.483 81.8219 150.407 82.3484 150.407C82.6969 150.407 83.0662 150.449 83.4563 150.532C83.8503 150.612 84.2177 150.76 84.5586 150.976C84.9033 151.191 85.1855 151.5 85.4052 151.902C85.6249 152.299 85.7347 152.816 85.7347 153.453V159.248H84.0756V158.055H84.0075C83.8976 158.275 83.7328 158.491 83.5131 158.703C83.2934 158.915 83.0112 159.091 82.6665 159.231C82.3219 159.371 81.909 159.441 81.4279 159.441ZM81.7972 158.078C82.2669 158.078 82.6684 157.985 83.0018 157.799C83.3389 157.614 83.5946 157.371 83.7688 157.072C83.9469 156.769 84.0359 156.445 84.0359 156.101V154.976C83.9753 155.036 83.8578 155.093 83.6836 155.146C83.5131 155.195 83.3181 155.239 83.0984 155.277C82.8787 155.311 82.6647 155.343 82.4563 155.373C82.248 155.4 82.0737 155.423 81.9336 155.441C81.604 155.483 81.3029 155.553 81.0302 155.652C80.7612 155.75 80.5453 155.892 80.3825 156.078C80.2234 156.26 80.1438 156.502 80.1438 156.805C80.1438 157.226 80.2991 157.544 80.6097 157.76C80.9203 157.972 81.3162 158.078 81.7972 158.078ZM91.2646 159.419C90.56 159.419 89.9312 159.239 89.3782 158.879C88.829 158.515 88.3971 157.998 88.0827 157.328C87.7721 156.654 87.6168 155.845 87.6168 154.902C87.6168 153.959 87.774 153.152 88.0884 152.481C88.4066 151.811 88.8422 151.298 89.3952 150.941C89.9483 150.585 90.5752 150.407 91.2759 150.407C91.8176 150.407 92.2532 150.498 92.5827 150.68C92.9161 150.858 93.1737 151.066 93.3555 151.305C93.5411 151.544 93.685 151.754 93.7873 151.936H93.8896V147.612H95.5884V159.248H93.9293V157.89H93.7873C93.685 158.076 93.5373 158.288 93.3441 158.527C93.1547 158.765 92.8933 158.974 92.56 159.152C92.2267 159.33 91.7949 159.419 91.2646 159.419ZM91.6396 157.97C92.1282 157.97 92.5411 157.841 92.8782 157.584C93.2191 157.322 93.4767 156.96 93.6509 156.498C93.829 156.036 93.918 155.498 93.918 154.885C93.918 154.279 93.8308 153.748 93.6566 153.294C93.4824 152.839 93.2267 152.485 92.8896 152.231C92.5524 151.977 92.1358 151.851 91.6396 151.851C91.1282 151.851 90.7021 151.983 90.3612 152.248C90.0202 152.513 89.7627 152.875 89.5884 153.334C89.418 153.792 89.3327 154.309 89.3327 154.885C89.3327 155.468 89.4199 155.993 89.5941 156.459C89.7683 156.924 90.0259 157.294 90.3668 157.566C90.7115 157.835 91.1358 157.97 91.6396 157.97ZM101.28 159.419C100.576 159.419 99.9469 159.239 99.3938 158.879C98.8446 158.515 98.4128 157.998 98.0984 157.328C97.7878 156.654 97.6325 155.845 97.6325 154.902C97.6325 153.959 97.7897 153.152 98.104 152.481C98.4222 151.811 98.8578 151.298 99.4109 150.941C99.9639 150.585 100.591 150.407 101.292 150.407C101.833 150.407 102.269 150.498 102.598 150.68C102.932 150.858 103.189 151.066 103.371 151.305C103.557 151.544 103.701 151.754 103.803 151.936H103.905V147.612H105.604V159.248H103.945V157.89H103.803C103.701 158.076 103.553 158.288 103.36 158.527C103.17 158.765 102.909 158.974 102.576 159.152C102.242 159.33 101.81 159.419 101.28 159.419ZM101.655 157.97C102.144 157.97 102.557 157.841 102.894 157.584C103.235 157.322 103.492 156.96 103.667 156.498C103.845 156.036 103.934 155.498 103.934 154.885C103.934 154.279 103.846 153.748 103.672 153.294C103.498 152.839 103.242 152.485 102.905 152.231C102.568 151.977 102.151 151.851 101.655 151.851C101.144 151.851 100.718 151.983 100.377 152.248C100.036 152.513 99.7783 152.875 99.604 153.334C99.4336 153.792 99.3484 154.309 99.3484 154.885C99.3484 155.468 99.4355 155.993 99.6097 156.459C99.784 156.924 100.042 157.294 100.382 157.566C100.727 157.835 101.151 157.97 101.655 157.97ZM111.79 159.424C110.93 159.424 110.19 159.241 109.569 158.873C108.951 158.502 108.474 157.981 108.137 157.311C107.803 156.637 107.637 155.847 107.637 154.941C107.637 154.048 107.803 153.26 108.137 152.578C108.474 151.896 108.944 151.364 109.546 150.981C110.152 150.599 110.86 150.407 111.671 150.407C112.163 150.407 112.641 150.489 113.103 150.652C113.565 150.815 113.98 151.07 114.347 151.419C114.714 151.767 115.004 152.22 115.216 152.777C115.428 153.33 115.534 154.002 115.534 154.794V155.396H108.597V154.123H113.87C113.87 153.676 113.779 153.28 113.597 152.936C113.415 152.587 113.159 152.313 112.83 152.112C112.504 151.911 112.122 151.811 111.682 151.811C111.205 151.811 110.788 151.928 110.432 152.163C110.08 152.394 109.807 152.697 109.614 153.072C109.425 153.443 109.33 153.847 109.33 154.282V155.277C109.33 155.86 109.432 156.356 109.637 156.765C109.845 157.174 110.135 157.487 110.506 157.703C110.877 157.915 111.311 158.021 111.807 158.021C112.129 158.021 112.423 157.976 112.688 157.885C112.953 157.79 113.182 157.65 113.375 157.464C113.569 157.279 113.716 157.049 113.819 156.777L115.426 157.066C115.298 157.54 115.067 157.955 114.733 158.311C114.404 158.663 113.989 158.938 113.489 159.135C112.993 159.328 112.426 159.424 111.79 159.424ZM120.686 159.419C119.982 159.419 119.353 159.239 118.8 158.879C118.251 158.515 117.819 157.998 117.505 157.328C117.194 156.654 117.039 155.845 117.039 154.902C117.039 153.959 117.196 153.152 117.51 152.481C117.828 151.811 118.264 151.298 118.817 150.941C119.37 150.585 119.997 150.407 120.698 150.407C121.239 150.407 121.675 150.498 122.005 150.68C122.338 150.858 122.596 151.066 122.777 151.305C122.963 151.544 123.107 151.754 123.209 151.936H123.311V147.612H125.01V159.248H123.351V157.89H123.209C123.107 158.076 122.959 158.288 122.766 158.527C122.577 158.765 122.315 158.974 121.982 159.152C121.649 159.33 121.217 159.419 120.686 159.419ZM121.061 157.97C121.55 157.97 121.963 157.841 122.3 157.584C122.641 157.322 122.899 156.96 123.073 156.498C123.251 156.036 123.34 155.498 123.34 154.885C123.34 154.279 123.253 153.748 123.078 153.294C122.904 152.839 122.649 152.485 122.311 152.231C121.974 151.977 121.558 151.851 121.061 151.851C120.55 151.851 120.124 151.983 119.783 152.248C119.442 152.513 119.185 152.875 119.01 153.334C118.84 153.792 118.755 154.309 118.755 154.885C118.755 155.468 118.842 155.993 119.016 156.459C119.19 156.924 119.448 157.294 119.789 157.566C120.133 157.835 120.558 157.97 121.061 157.97Z" fill="#052E16"/>
<rect x="159.974" y="141.02" width="18" height="18" transform="rotate(45 159.974 141.02)" fill="#F0FDF4"/>
<rect x="159.974" y="146.677" width="10" height="10" transform="rotate(45 159.974 146.677)" fill="#BBF7D0"/>
<path d="M181.401 157.748V156.953L183.862 154.403C184.125 154.126 184.342 153.883 184.512 153.675C184.685 153.464 184.814 153.264 184.899 153.075C184.985 152.886 185.027 152.684 185.027 152.471C185.027 152.23 184.97 152.021 184.857 151.846C184.743 151.669 184.588 151.533 184.392 151.438C184.195 151.341 183.974 151.292 183.727 151.292C183.467 151.292 183.24 151.346 183.046 151.452C182.852 151.559 182.702 151.709 182.598 151.903C182.494 152.097 182.442 152.325 182.442 152.585H181.394C181.394 152.142 181.496 151.755 181.7 151.424C181.903 151.092 182.183 150.835 182.538 150.653C182.893 150.468 183.297 150.376 183.749 150.376C184.206 150.376 184.608 150.467 184.956 150.65C185.307 150.829 185.58 151.076 185.776 151.388C185.973 151.698 186.071 152.049 186.071 152.439C186.071 152.709 186.02 152.973 185.919 153.231C185.819 153.489 185.645 153.777 185.397 154.094C185.148 154.409 184.802 154.791 184.36 155.241L182.914 156.754V156.807H186.188V157.748H181.401ZM190.066 157.869C189.505 157.867 189.026 157.719 188.628 157.425C188.23 157.132 187.926 156.704 187.715 156.143C187.505 155.582 187.399 154.906 187.399 154.115C187.399 153.327 187.505 152.654 187.715 152.095C187.928 151.536 188.234 151.11 188.632 150.816C189.032 150.523 189.51 150.376 190.066 150.376C190.623 150.376 191.1 150.524 191.497 150.82C191.895 151.114 192.199 151.54 192.41 152.098C192.623 152.655 192.73 153.327 192.73 154.115C192.73 154.909 192.624 155.586 192.414 156.147C192.203 156.705 191.899 157.133 191.501 157.429C191.103 157.722 190.625 157.869 190.066 157.869ZM190.066 156.921C190.559 156.921 190.943 156.681 191.22 156.2C191.5 155.719 191.639 155.025 191.639 154.115C191.639 153.512 191.575 153.002 191.448 152.585C191.322 152.166 191.141 151.849 190.904 151.633C190.67 151.415 190.391 151.307 190.066 151.307C189.576 151.307 189.191 151.548 188.912 152.031C188.633 152.514 188.492 153.209 188.49 154.115C188.49 154.722 188.552 155.234 188.678 155.653C188.806 156.07 188.987 156.386 189.221 156.601C189.455 156.814 189.737 156.921 190.066 156.921ZM193.989 157.748V156.953L196.45 154.403C196.713 154.126 196.93 153.883 197.1 153.675C197.273 153.464 197.402 153.264 197.487 153.075C197.572 152.886 197.615 152.684 197.615 152.471C197.615 152.23 197.558 152.021 197.445 151.846C197.331 151.669 197.176 151.533 196.979 151.438C196.783 151.341 196.562 151.292 196.315 151.292C196.055 151.292 195.828 151.346 195.634 151.452C195.439 151.559 195.29 151.709 195.186 151.903C195.082 152.097 195.03 152.325 195.03 152.585H193.982C193.982 152.142 194.084 151.755 194.288 151.424C194.491 151.092 194.771 150.835 195.126 150.653C195.481 150.468 195.884 150.376 196.337 150.376C196.794 150.376 197.196 150.467 197.544 150.65C197.894 150.829 198.168 151.076 198.364 151.388C198.561 151.698 198.659 152.049 198.659 152.439C198.659 152.709 198.608 152.973 198.506 153.231C198.407 153.489 198.233 153.777 197.984 154.094C197.736 154.409 197.39 154.791 196.947 155.241L195.502 156.754V156.807H198.776V157.748H193.989ZM199.813 156.328V155.44L202.956 150.476H203.656V151.782H203.212L200.964 155.341V155.397H205.271V156.328H199.813ZM203.261 157.748V156.058L203.268 155.653V150.476H204.309V157.748H203.261ZM209.737 153.65V154.574H206.512V153.65H209.737ZM213.897 150.476V157.748H212.796V151.576H212.754L211.014 152.713V151.662L212.828 150.476H213.897ZM218.396 157.869C217.835 157.867 217.356 157.719 216.958 157.425C216.56 157.132 216.256 156.704 216.045 156.143C215.835 155.582 215.729 154.906 215.729 154.115C215.729 153.327 215.835 152.654 216.045 152.095C216.259 151.536 216.564 151.11 216.962 150.816C217.362 150.523 217.84 150.376 218.396 150.376C218.953 150.376 219.43 150.524 219.827 150.82C220.225 151.114 220.529 151.54 220.74 152.098C220.953 152.655 221.06 153.327 221.06 154.115C221.06 154.909 220.954 155.586 220.744 156.147C220.533 156.705 220.229 157.133 219.831 157.429C219.433 157.722 218.955 157.869 218.396 157.869ZM218.396 156.921C218.889 156.921 219.273 156.681 219.55 156.2C219.83 155.719 219.969 155.025 219.969 154.115C219.969 153.512 219.906 153.002 219.778 152.585C219.652 152.166 219.471 151.849 219.234 151.633C219 151.415 218.721 151.307 218.396 151.307C217.906 151.307 217.522 151.548 217.242 152.031C216.963 152.514 216.822 153.209 216.82 154.115C216.82 154.722 216.882 155.234 217.008 155.653C217.136 156.07 217.317 156.386 217.551 156.601C217.786 156.814 218.067 156.921 218.396 156.921ZM225.547 153.65V154.574H222.323V153.65H225.547ZM226.655 157.748V156.953L229.116 154.403C229.379 154.126 229.596 153.883 229.766 153.675C229.939 153.464 230.068 153.264 230.153 153.075C230.238 152.886 230.281 152.684 230.281 152.471C230.281 152.23 230.224 152.021 230.111 151.846C229.997 151.669 229.842 151.533 229.645 151.438C229.449 151.341 229.228 151.292 228.981 151.292C228.721 151.292 228.494 151.346 228.3 151.452C228.105 151.559 227.956 151.709 227.852 151.903C227.748 152.097 227.696 152.325 227.696 152.585H226.648C226.648 152.142 226.75 151.755 226.954 151.424C227.157 151.092 227.437 150.835 227.792 150.653C228.147 150.468 228.551 150.376 229.003 150.376C229.46 150.376 229.862 150.467 230.21 150.65C230.56 150.829 230.834 151.076 231.03 151.388C231.227 151.698 231.325 152.049 231.325 152.439C231.325 152.709 231.274 152.973 231.172 153.231C231.073 153.489 230.899 153.777 230.65 154.094C230.402 154.409 230.056 154.791 229.613 155.241L228.168 156.754V156.807H231.442V157.748H226.655ZM235.207 150.376C235.531 150.378 235.85 150.438 236.165 150.554C236.48 150.67 236.764 150.859 237.018 151.122C237.273 151.385 237.477 151.74 237.628 152.187C237.782 152.632 237.86 153.186 237.863 153.849C237.863 154.486 237.799 155.053 237.671 155.55C237.543 156.045 237.36 156.463 237.121 156.804C236.884 157.145 236.596 157.404 236.258 157.581C235.919 157.759 235.538 157.848 235.114 157.848C234.681 157.848 234.296 157.762 233.96 157.592C233.624 157.422 233.35 157.186 233.14 156.885C232.929 156.582 232.798 156.234 232.746 155.841H233.829C233.9 156.154 234.044 156.407 234.262 156.601C234.482 156.793 234.766 156.889 235.114 156.889C235.647 156.889 236.062 156.657 236.361 156.193C236.659 155.727 236.809 155.075 236.812 154.24H236.755C236.632 154.443 236.478 154.619 236.293 154.765C236.111 154.912 235.906 155.026 235.679 155.106C235.452 155.187 235.209 155.227 234.951 155.227C234.532 155.227 234.151 155.124 233.807 154.918C233.464 154.712 233.191 154.429 232.987 154.069C232.783 153.709 232.682 153.299 232.682 152.837C232.682 152.378 232.786 151.961 232.994 151.587C233.205 151.213 233.498 150.917 233.875 150.699C234.254 150.479 234.698 150.371 235.207 150.376ZM235.21 151.299C234.933 151.299 234.683 151.368 234.461 151.505C234.241 151.64 234.067 151.824 233.939 152.056C233.811 152.285 233.747 152.541 233.747 152.823C233.747 153.105 233.809 153.36 233.932 153.59C234.057 153.817 234.228 153.998 234.443 154.133C234.661 154.266 234.909 154.332 235.189 154.332C235.397 154.332 235.591 154.292 235.771 154.211C235.951 154.131 236.109 154.02 236.243 153.878C236.378 153.733 236.484 153.57 236.56 153.387C236.635 153.205 236.673 153.013 236.673 152.812C236.673 152.545 236.609 152.296 236.481 152.066C236.356 151.837 236.183 151.652 235.963 151.512C235.743 151.37 235.492 151.299 235.21 151.299Z" fill="#0A0A0A"/>
<rect x="3.24634" y="223.79" width="139" height="27" rx="13.5" fill="#DBEAFE"/>
<g clip-path="url(#clip0_33_1045)">
<path d="M21.2463 232.79H17.7463C17.4811 232.79 17.2268 232.896 17.0392 233.083C16.8517 233.271 16.7463 233.525 16.7463 233.79V240.79C16.7463 241.055 16.8517 241.31 17.0392 241.497C17.2268 241.685 17.4811 241.79 17.7463 241.79H24.7463C25.0116 241.79 25.2659 241.685 25.4534 241.497C25.641 241.31 25.7463 241.055 25.7463 240.79V237.29M24.4338 232.603C24.6328 232.404 24.9025 232.292 25.1838 232.292C25.4651 232.292 25.7349 232.404 25.9338 232.603C26.1328 232.802 26.2445 233.071 26.2445 233.353C26.2445 233.634 26.1328 233.904 25.9338 234.103L21.4273 238.61C21.3086 238.728 21.1619 238.815 21.0008 238.862L19.5643 239.282C19.5213 239.295 19.4757 239.295 19.4323 239.284C19.3889 239.273 19.3493 239.251 19.3176 239.219C19.2859 239.187 19.2633 239.148 19.2522 239.104C19.241 239.061 19.2418 239.015 19.2543 238.972L19.6743 237.536C19.7216 237.375 19.8086 237.228 19.9273 237.11L24.4338 232.603Z" stroke="#172554" stroke-linecap="round" stroke-linejoin="round"/>
</g>
<path d="M40.5418 234.063V235.426H35.61V234.063H40.5418ZM36.9622 242.79V233.051C36.9622 232.506 37.0816 232.053 37.3202 231.693C37.5588 231.33 37.8751 231.059 38.2691 230.881C38.663 230.699 39.091 230.608 39.5532 230.608C39.8941 230.608 40.1857 230.637 40.4282 230.693C40.6706 230.746 40.8505 230.796 40.9679 230.841L40.5702 232.216C40.4907 232.193 40.3884 232.167 40.2634 232.137C40.1384 232.103 39.9869 232.085 39.8088 232.085C39.396 232.085 39.1005 232.188 38.9225 232.392C38.7482 232.597 38.6611 232.892 38.6611 233.279V242.79H36.9622ZM42.2946 242.79V234.063H43.9935V242.79H42.2946ZM43.1526 232.716C42.8571 232.716 42.6033 232.618 42.3912 232.421C42.1829 232.22 42.0787 231.981 42.0787 231.705C42.0787 231.425 42.1829 231.186 42.3912 230.989C42.6033 230.788 42.8571 230.688 43.1526 230.688C43.448 230.688 43.6999 230.788 43.9083 230.989C44.1204 231.186 44.2265 231.425 44.2265 231.705C44.2265 231.981 44.1204 232.22 43.9083 232.421C43.6999 232.618 43.448 232.716 43.1526 232.716ZM47.9779 231.154V242.79H46.279V231.154H47.9779ZM54.0247 242.966C53.1649 242.966 52.4244 242.782 51.8032 242.415C51.1857 242.044 50.7085 241.523 50.3713 240.853C50.038 240.178 49.8713 239.389 49.8713 238.483C49.8713 237.589 50.038 236.801 50.3713 236.12C50.7085 235.438 51.1782 234.906 51.7804 234.523C52.3865 234.14 53.0948 233.949 53.9054 233.949C54.3979 233.949 54.8751 234.031 55.3372 234.193C55.7994 234.356 56.2141 234.612 56.5816 234.96C56.949 235.309 57.2388 235.762 57.4509 236.318C57.663 236.871 57.7691 237.544 57.7691 238.335V238.938H50.8316V237.665H56.1043C56.1043 237.218 56.0134 236.822 55.8316 236.478C55.6497 236.129 55.3941 235.854 55.0645 235.654C54.7388 235.453 54.3562 235.353 53.9168 235.353C53.4395 235.353 53.0229 235.47 52.6668 235.705C52.3145 235.936 52.0418 236.239 51.8486 236.614C51.6592 236.985 51.5645 237.389 51.5645 237.824V238.818C51.5645 239.402 51.6668 239.898 51.8713 240.307C52.0797 240.716 52.3694 241.029 52.7407 241.245C53.1119 241.457 53.5456 241.563 54.0418 241.563C54.3638 241.563 54.6573 241.517 54.9225 241.426C55.1876 241.332 55.4168 241.192 55.61 241.006C55.8032 240.82 55.9509 240.591 56.0532 240.318L57.6611 240.608C57.5323 241.082 57.3013 241.496 56.9679 241.853C56.6384 242.205 56.2236 242.479 55.7236 242.676C55.2274 242.87 54.6611 242.966 54.0247 242.966ZM63.8884 242.79V234.063H65.5191V235.483H65.627C65.8088 235.002 66.1062 234.627 66.5191 234.358C66.9319 234.085 67.4263 233.949 68.002 233.949C68.5854 233.949 69.074 234.085 69.4679 234.358C69.8657 234.631 70.1592 235.006 70.3486 235.483H70.4395C70.6479 235.017 70.9793 234.646 71.4338 234.37C71.8884 234.089 72.43 233.949 73.0588 233.949C73.8505 233.949 74.4963 234.197 74.9963 234.693C75.5001 235.19 75.752 235.938 75.752 236.938V242.79H74.0532V237.097C74.0532 236.506 73.8922 236.078 73.5702 235.813C73.2482 235.548 72.8638 235.415 72.4168 235.415C71.8638 235.415 71.4338 235.585 71.127 235.926C70.8202 236.264 70.6668 236.697 70.6668 237.228V242.79H68.9736V236.989C68.9736 236.515 68.8259 236.135 68.5304 235.847C68.235 235.559 67.8505 235.415 67.377 235.415C67.0551 235.415 66.7577 235.5 66.485 235.671C66.216 235.837 65.9982 236.07 65.8316 236.37C65.6687 236.669 65.5872 237.015 65.5872 237.409V242.79H63.8884ZM81.7051 242.966C80.887 242.966 80.1729 242.779 79.5631 242.404C78.9533 242.029 78.4798 241.504 78.1426 240.83C77.8055 240.156 77.637 239.368 77.637 238.466C77.637 237.561 77.8055 236.769 78.1426 236.091C78.4798 235.413 78.9533 234.887 79.5631 234.512C80.1729 234.137 80.887 233.949 81.7051 233.949C82.5233 233.949 83.2373 234.137 83.8472 234.512C84.457 234.887 84.9305 235.413 85.2676 236.091C85.6048 236.769 85.7733 237.561 85.7733 238.466C85.7733 239.368 85.6048 240.156 85.2676 240.83C84.9305 241.504 84.457 242.029 83.8472 242.404C83.2373 242.779 82.5233 242.966 81.7051 242.966ZM81.7108 241.54C82.2411 241.54 82.6805 241.4 83.029 241.12C83.3775 240.839 83.6351 240.466 83.8017 240C83.9722 239.534 84.0574 239.021 84.0574 238.46C84.0574 237.904 83.9722 237.392 83.8017 236.926C83.6351 236.457 83.3775 236.08 83.029 235.796C82.6805 235.512 82.2411 235.37 81.7108 235.37C81.1767 235.37 80.7336 235.512 80.3813 235.796C80.0328 236.08 79.7733 236.457 79.6029 236.926C79.4362 237.392 79.3529 237.904 79.3529 238.46C79.3529 239.021 79.4362 239.534 79.6029 240C79.7733 240.466 80.0328 240.839 80.3813 241.12C80.7336 241.4 81.1767 241.54 81.7108 241.54ZM90.9367 242.96C90.2321 242.96 89.6033 242.781 89.0503 242.421C88.5011 242.057 88.0693 241.54 87.7549 240.87C87.4443 240.195 87.289 239.387 87.289 238.443C87.289 237.5 87.4461 236.693 87.7605 236.023C88.0787 235.353 88.5143 234.839 89.0674 234.483C89.6204 234.127 90.2473 233.949 90.948 233.949C91.4897 233.949 91.9253 234.04 92.2549 234.222C92.5882 234.4 92.8458 234.608 93.0276 234.847C93.2132 235.085 93.3571 235.296 93.4594 235.478H93.5617V231.154H95.2605V242.79H93.6015V241.432H93.4594C93.3571 241.618 93.2094 241.83 93.0162 242.068C92.8268 242.307 92.5655 242.515 92.2321 242.693C91.8988 242.871 91.467 242.96 90.9367 242.96ZM91.3117 241.512C91.8003 241.512 92.2132 241.383 92.5503 241.125C92.8912 240.864 93.1488 240.502 93.323 240.04C93.5011 239.578 93.5901 239.04 93.5901 238.426C93.5901 237.82 93.503 237.29 93.3287 236.835C93.1545 236.381 92.8988 236.027 92.5617 235.773C92.2246 235.519 91.8079 235.392 91.3117 235.392C90.8003 235.392 90.3742 235.525 90.0333 235.79C89.6924 236.055 89.4348 236.417 89.2605 236.875C89.0901 237.334 89.0049 237.851 89.0049 238.426C89.0049 239.01 89.092 239.534 89.2662 240C89.4405 240.466 89.698 240.835 90.039 241.108C90.3836 241.377 90.8079 241.512 91.3117 241.512ZM97.6853 242.79V234.063H99.3841V242.79H97.6853ZM98.5432 232.716C98.2478 232.716 97.994 232.618 97.7818 232.421C97.5735 232.22 97.4693 231.981 97.4693 231.705C97.4693 231.425 97.5735 231.186 97.7818 230.989C97.994 230.788 98.2478 230.688 98.5432 230.688C98.8387 230.688 99.0906 230.788 99.2989 230.989C99.511 231.186 99.6171 231.425 99.6171 231.705C99.6171 231.981 99.511 232.22 99.2989 232.421C99.0906 232.618 98.8387 232.716 98.5432 232.716ZM105.823 234.063V235.426H100.891V234.063H105.823ZM102.243 242.79V233.051C102.243 232.506 102.363 232.053 102.601 231.693C102.84 231.33 103.156 231.059 103.55 230.881C103.944 230.699 104.372 230.608 104.834 230.608C105.175 230.608 105.467 230.637 105.709 230.693C105.952 230.746 106.132 230.796 106.249 230.841L105.851 232.216C105.772 232.193 105.67 232.167 105.545 232.137C105.42 232.103 105.268 232.085 105.09 232.085C104.677 232.085 104.382 232.188 104.204 232.392C104.029 232.597 103.942 232.892 103.942 233.279V242.79H102.243ZM107.576 242.79V234.063H109.275V242.79H107.576ZM108.434 232.716C108.138 232.716 107.885 232.618 107.672 232.421C107.464 232.22 107.36 231.981 107.36 231.705C107.36 231.425 107.464 231.186 107.672 230.989C107.885 230.788 108.138 230.688 108.434 230.688C108.729 230.688 108.981 230.788 109.19 230.989C109.402 231.186 109.508 231.425 109.508 231.705C109.508 231.981 109.402 232.22 109.19 232.421C108.981 232.618 108.729 232.716 108.434 232.716ZM115.322 242.966C114.462 242.966 113.721 242.782 113.1 242.415C112.483 242.044 112.005 241.523 111.668 240.853C111.335 240.178 111.168 239.389 111.168 238.483C111.168 237.589 111.335 236.801 111.668 236.12C112.005 235.438 112.475 234.906 113.077 234.523C113.683 234.14 114.392 233.949 115.202 233.949C115.695 233.949 116.172 234.031 116.634 234.193C117.096 234.356 117.511 234.612 117.878 234.96C118.246 235.309 118.536 235.762 118.748 236.318C118.96 236.871 119.066 237.544 119.066 238.335V238.938H112.128V237.665H117.401C117.401 237.218 117.31 236.822 117.128 236.478C116.947 236.129 116.691 235.854 116.361 235.654C116.036 235.453 115.653 235.353 115.214 235.353C114.736 235.353 114.32 235.47 113.964 235.705C113.611 235.936 113.339 236.239 113.145 236.614C112.956 236.985 112.861 237.389 112.861 237.824V238.818C112.861 239.402 112.964 239.898 113.168 240.307C113.377 240.716 113.666 241.029 114.038 241.245C114.409 241.457 114.842 241.563 115.339 241.563C115.661 241.563 115.954 241.517 116.219 241.426C116.485 241.332 116.714 241.192 116.907 241.006C117.1 240.82 117.248 240.591 117.35 240.318L118.958 240.608C118.829 241.082 118.598 241.496 118.265 241.853C117.935 242.205 117.52 242.479 117.02 242.676C116.524 242.87 115.958 242.966 115.322 242.966ZM124.218 242.96C123.513 242.96 122.885 242.781 122.332 242.421C121.782 242.057 121.351 241.54 121.036 240.87C120.726 240.195 120.57 239.387 120.57 238.443C120.57 237.5 120.727 236.693 121.042 236.023C121.36 235.353 121.796 234.839 122.349 234.483C122.902 234.127 123.529 233.949 124.229 233.949C124.771 233.949 125.207 234.04 125.536 234.222C125.869 234.4 126.127 234.608 126.309 234.847C126.494 235.085 126.638 235.296 126.741 235.478H126.843V231.154H128.542V242.79H126.883V241.432H126.741C126.638 241.618 126.491 241.83 126.297 242.068C126.108 242.307 125.847 242.515 125.513 242.693C125.18 242.871 124.748 242.96 124.218 242.96ZM124.593 241.512C125.082 241.512 125.494 241.383 125.832 241.125C126.172 240.864 126.43 240.502 126.604 240.04C126.782 239.578 126.871 239.04 126.871 238.426C126.871 237.82 126.784 237.29 126.61 236.835C126.436 236.381 126.18 236.027 125.843 235.773C125.506 235.519 125.089 235.392 124.593 235.392C124.082 235.392 123.655 235.525 123.315 235.79C122.974 236.055 122.716 236.417 122.542 236.875C122.371 237.334 122.286 237.851 122.286 238.426C122.286 239.01 122.373 239.534 122.547 240C122.722 240.466 122.979 240.835 123.32 241.108C123.665 241.377 124.089 241.512 124.593 241.512Z" fill="#172554"/>
<rect x="162.974" y="224.562" width="18" height="18" transform="rotate(45 162.974 224.562)" fill="#DBEAFE"/>
<rect x="162.974" y="230.219" width="10" height="10" transform="rotate(45 162.974 230.219)" fill="#BFDBFE"/>
<path d="M184.402 241.29V240.495L186.863 237.945C187.125 237.668 187.342 237.425 187.513 237.217C187.685 237.006 187.814 236.806 187.9 236.617C187.985 236.427 188.027 236.226 188.027 236.013C188.027 235.772 187.971 235.563 187.857 235.388C187.743 235.21 187.588 235.074 187.392 234.98C187.195 234.883 186.974 234.834 186.728 234.834C186.467 234.834 186.24 234.887 186.046 234.994C185.852 235.1 185.703 235.251 185.598 235.445C185.494 235.639 185.442 235.866 185.442 236.127H184.395C184.395 235.684 184.496 235.297 184.7 234.965C184.904 234.634 185.183 234.377 185.538 234.195C185.893 234.01 186.297 233.918 186.749 233.918C187.206 233.918 187.608 234.009 187.956 234.191C188.307 234.371 188.58 234.617 188.777 234.93C188.973 235.24 189.071 235.59 189.071 235.981C189.071 236.251 189.021 236.515 188.919 236.773C188.819 237.031 188.645 237.319 188.397 237.636C188.148 237.951 187.803 238.333 187.36 238.783L185.915 240.296V240.349H189.189V241.29H184.402ZM193.066 241.411C192.505 241.408 192.026 241.26 191.628 240.967C191.231 240.673 190.926 240.246 190.716 239.685C190.505 239.124 190.4 238.448 190.4 237.657C190.4 236.869 190.505 236.195 190.716 235.637C190.929 235.078 191.234 234.652 191.632 234.358C192.032 234.065 192.51 233.918 193.066 233.918C193.623 233.918 194.1 234.066 194.498 234.362C194.895 234.655 195.2 235.081 195.41 235.64C195.623 236.197 195.73 236.869 195.73 237.657C195.73 238.45 195.624 239.127 195.414 239.688C195.203 240.247 194.899 240.675 194.501 240.97C194.103 241.264 193.625 241.411 193.066 241.411ZM193.066 240.463C193.559 240.463 193.944 240.222 194.221 239.742C194.5 239.261 194.64 238.566 194.64 237.657C194.64 237.054 194.576 236.543 194.448 236.127C194.322 235.708 194.141 235.39 193.905 235.175C193.67 234.957 193.391 234.848 193.066 234.848C192.576 234.848 192.192 235.09 191.912 235.573C191.633 236.056 191.492 236.751 191.49 237.657C191.49 238.263 191.553 238.776 191.678 239.195C191.806 239.612 191.987 239.928 192.221 240.143C192.456 240.356 192.737 240.463 193.066 240.463ZM196.99 241.29V240.495L199.451 237.945C199.713 237.668 199.93 237.425 200.1 237.217C200.273 237.006 200.402 236.806 200.487 236.617C200.573 236.427 200.615 236.226 200.615 236.013C200.615 235.772 200.559 235.563 200.445 235.388C200.331 235.21 200.176 235.074 199.98 234.98C199.783 234.883 199.562 234.834 199.316 234.834C199.055 234.834 198.828 234.887 198.634 234.994C198.44 235.1 198.291 235.251 198.186 235.445C198.082 235.639 198.03 235.866 198.03 236.127H196.983C196.983 235.684 197.084 235.297 197.288 234.965C197.492 234.634 197.771 234.377 198.126 234.195C198.481 234.01 198.885 233.918 199.337 233.918C199.794 233.918 200.196 234.009 200.544 234.191C200.895 234.371 201.168 234.617 201.365 234.93C201.561 235.24 201.659 235.59 201.659 235.981C201.659 236.251 201.608 236.515 201.507 236.773C201.407 237.031 201.233 237.319 200.985 237.636C200.736 237.951 200.39 238.333 199.948 238.783L198.502 240.296V240.349H201.777V241.29H196.99ZM202.813 239.87V238.982L205.956 234.017H206.656V235.324H206.212L203.964 238.882V238.939H208.272V239.87H202.813ZM206.262 241.29V239.6L206.269 239.195V234.017H207.309V241.29H206.262ZM212.737 237.192V238.115H209.513V237.192H212.737ZM216.897 234.017V241.29H215.796V235.118H215.754L214.014 236.255V235.203L215.828 234.017H216.897ZM221.624 234.017V241.29H220.523V235.118H220.48L218.74 236.255V235.203L220.555 234.017H221.624ZM226.819 237.192V238.115H223.595V237.192H226.819ZM230.752 241.411C230.191 241.408 229.712 241.26 229.314 240.967C228.916 240.673 228.612 240.246 228.401 239.685C228.19 239.124 228.085 238.448 228.085 237.657C228.085 236.869 228.19 236.195 228.401 235.637C228.614 235.078 228.92 234.652 229.317 234.358C229.717 234.065 230.196 233.918 230.752 233.918C231.308 233.918 231.785 234.066 232.183 234.362C232.581 234.655 232.885 235.081 233.096 235.64C233.309 236.197 233.415 236.869 233.415 237.657C233.415 238.45 233.31 239.127 233.099 239.688C232.889 240.247 232.584 240.675 232.187 240.97C231.789 241.264 231.311 241.411 230.752 241.411ZM230.752 240.463C231.244 240.463 231.629 240.222 231.906 239.742C232.186 239.261 232.325 238.566 232.325 237.657C232.325 237.054 232.261 236.543 232.133 236.127C232.008 235.708 231.827 235.39 231.59 235.175C231.356 234.957 231.076 234.848 230.752 234.848C230.262 234.848 229.877 235.09 229.598 235.573C229.319 236.056 229.178 236.751 229.175 237.657C229.175 238.263 229.238 238.776 229.364 239.195C229.491 239.612 229.672 239.928 229.907 240.143C230.141 240.356 230.423 240.463 230.752 240.463ZM237.434 234.017V241.29H236.334V235.118H236.291L234.551 236.255V235.203L236.366 234.017H237.434Z" fill="black"/>
<rect x="268.754" width="10" height="325.038" fill="url(#paint0_linear_33_1045)"/>
<defs>
<linearGradient id="paint0_linear_33_1045" x1="273.754" y1="0" x2="273.754" y2="325.038" gradientUnits="userSpaceOnUse">
<stop offset="0.0259998" stop-color="white"/>
<stop offset="0.265426" stop-color="#C4B5FD"/>
<stop offset="1" stop-color="#C4B5FD" stop-opacity="0"/>
</linearGradient>
<clipPath id="clip0_33_1045">
<rect width="12" height="12" fill="white" transform="translate(15.2463 231.29)"/>
</clipPath>
</defs>
</svg>
