<svg width="962" height="2836" viewBox="0 0 962 2836" fill="none" xmlns="http://www.w3.org/2000/svg">
<g filter="url(#filter0_f_68_25)">
<path d="M-80.4199 300.012C147.014 296.695 402.417 1187.87 407.567 1541.04C412.717 1894.2 45.8144 2358.33 -34.5288 2655.47C-124.5 2262.89 -410.894 1906.21 -416.044 1553.05C-421.194 1199.88 -12.9479 949.804 -80.4199 300.012Z" fill="#CB89FF" fill-opacity="0.2"/>
</g>
<g filter="url(#filter1_f_68_25)">
<path d="M152.05 2547.65C11.1283 2559.11 -211.926 1675.09 -240.696 1321.32C-269.466 967.552 324.462 629.12 533.07 410.857C673.992 399.397 240.857 926.05 269.628 1279.82C298.398 1633.59 63.119 1898.83 152.05 2547.65Z" fill="#A7D5FF" fill-opacity="0.3"/>
</g>
<defs>
<filter id="filter0_f_68_25" x="-716.093" y="0.00268555" width="1423.71" height="2955.47" filterUnits="userSpaceOnUse" color-interpolation-filters="sRGB">
<feFlood flood-opacity="0" result="BackgroundImageFix"/>
<feBlend mode="normal" in="SourceGraphic" in2="BackgroundImageFix" result="shape"/>
<feGaussianBlur stdDeviation="150" result="effect1_foregroundBlur_68_25"/>
</filter>
<filter id="filter1_f_68_25" x="-641.706" y="10.6736" width="1603.05" height="2937.09" filterUnits="userSpaceOnUse" color-interpolation-filters="sRGB">
<feFlood flood-opacity="0" result="BackgroundImageFix"/>
<feBlend mode="normal" in="SourceGraphic" in2="BackgroundImageFix" result="shape"/>
<feGaussianBlur stdDeviation="200" result="effect1_foregroundBlur_68_25"/>
</filter>
</defs>
</svg>
